<svg width="488" height="561" viewBox="0 0 488 561" fill="none" xmlns="http://www.w3.org/2000/svg">
<path fill-rule="evenodd" clip-rule="evenodd" d="M5.62533 556.798L482.876 281.257L5.62532 5.71582L5.62533 556.798ZM6.62534 555.066L480.876 281.257L6.62532 7.44787L6.62534 555.066Z" fill="#F2F2F2"/>
<path d="M10.3212 8.33018C8.94048 10.7216 5.88253 11.541 3.49107 10.1603C1.09961 8.7796 0.28023 5.72164 1.66094 3.33018C3.04165 0.938718 6.09961 0.119342 8.49107 1.50005C10.8825 2.88077 11.7019 5.93872 10.3212 8.33018Z" fill="#F2F2F2"/>
<path d="M10.4779 558.058C9.09722 560.45 6.03927 561.269 3.64781 559.888C1.25634 558.508 0.436969 555.45 1.81768 553.058C3.19839 550.667 6.25634 549.847 8.64781 551.228C11.0393 552.609 11.8586 555.667 10.4779 558.058Z" fill="#F2F2F2"/>
<path d="M486.636 283.33C485.255 285.722 482.197 286.541 479.806 285.16C477.414 283.78 476.595 280.722 477.975 278.33C479.356 275.939 482.414 275.119 484.806 276.5C487.197 277.881 488.016 280.939 486.636 283.33Z" fill="#F2F2F2"/>
</svg>
